PathFileType	4	(X/Y/Z)	C:/Users/Carlo/Dropbox/Carlos/SARAH/CongressoMarcha2025/WorkshopOpenSim/C3D/Caso01/Walking 02.c3d.trc
DataRate	CameraRate	NumFrames	NumMarkers	Units	OrigDataRate	OrigDataStartFrame	OrigNumFrames
100.000000	100.000000	4	85	mm	100.000000	45	364
Frame#	Time	PELO			PELA			PELL			PELP			LFEO			LFEA			LFEL			LFEP			LTIO			LTIA			LTIL			LTIP			LFOO			LFOA			LFOL			LFOP			LTOO			LTOA			LTOL			LTOP			RFEO			RFEA			RFEL			RFEP			RTIO			RTIA			RTIL			RTIP			RFOO			RFOA			RFOL			RFOP			RTOO			RTOA			RTOL			RTOP			LASI			RASI			RPSI			LTHI			LKNE			LTIB			LANK			LHEE			LTOE			RTHI			RKNE			RTIB			RANK			RHEE			RTOE			LPSI			LHipAngles			LKneeAngles			LAbsAnkleAngle			LAnkleAngles			RHipAngles			RKneeAngles			RAnkleAngles			RAbsAnkleAngle			LPelvisAngles			RPelvisAngles			LFootProgressAngles			RFootProgressAngles			LHipPower			LKneePower			LAnklePower			RHipPower			RKneePower			RAnklePower			LGroundReactionForce			LNormalisedGRF			LAnkleForce			RAnkleForce			RKneeForce			LKneeForce			RHipForce			LHipForce			LGroundReactionMoment			LAnkleMoment			RAnkleMoment			RKneeMoment			LKneeMoment			RHipMoment			LHipMoment			
		X1	Y1	Z1	X2	Y2	Z2	X3	Y3	Z3	X4	Y4	Z4	X5	Y5	Z5	X6	Y6	Z6	X7	Y7	Z7	X8	Y8	Z8	X9	Y9	Z9	X10	Y10	Z10	X11	Y11	Z11	X12	Y12	Z12	X13	Y13	Z13	X14	Y14	Z14	X15	Y15	Z15	X16	Y16	Z16	X17	Y17	Z17	X18	Y18	Z18	X19	Y19	Z19	X20	Y20	Z20	X21	Y21	Z21	X22	Y22	Z22	X23	Y23	Z23	X24	Y24	Z24	X25	Y25	Z25	X26	Y26	Z26	X27	Y27	Z27	X28	Y28	Z28	X29	Y29	Z29	X30	Y30	Z30	X31	Y31	Z31	X32	Y32	Z32	X33	Y33	Z33	X34	Y34	Z34	X35	Y35	Z35	X36	Y36	Z36	X37	Y37	Z37	X38	Y38	Z38	X39	Y39	Z39	X40	Y40	Z40	X41	Y41	Z41	X42	Y42	Z42	X43	Y43	Z43	X44	Y44	Z44	X45	Y45	Z45	X46	Y46	Z46	X47	Y47	Z47	X48	Y48	Z48	X49	Y49	Z49	X50	Y50	Z50	X51	Y51	Z51	X52	Y52	Z52	X53	Y53	Z53	X54	Y54	Z54	X55	Y55	Z55	X56	Y56	Z56	X57	Y57	Z57	X58	Y58	Z58	X59	Y59	Z59	X60	Y60	Z60	X61	Y61	Z61	X62	Y62	Z62	X63	Y63	Z63	X64	Y64	Z64	X65	Y65	Z65	X66	Y66	Z66	X67	Y67	Z67	X68	Y68	Z68	X69	Y69	Z69	X70	Y70	Z70	X71	Y71	Z71	X72	Y72	Z72	X73	Y73	Z73	X74	Y74	Z74	X75	Y75	Z75	X76	Y76	Z76	X77	Y77	Z77	X78	Y78	Z78	X79	Y79	Z79	X80	Y80	Z80	X81	Y81	Z81	X82	Y82	Z82	X83	Y83	Z83	X84	Y84	Z84	X85	Y85	Z85	

46	0.45	123.5942306518555	898.854614257813	1871.388183593751	142.1760253906251	885.8107299804692	1744.476318359376	-3.851791381835939	902.8406372070317	1852.318481445313	129.4472961425782	1027.0576171875	1859.068603515626	45.45941543579103	521.5126953125002	1695.305786132813	115.3507995605469	683.483093261719	1320.190551757813	-362.8760681152345	562.6336059570315	1636.980346679688	59.88096618652347	900.8610839843755	1861.791015625001	37.91357040405275	108.2250976562501	1544.067993164063	35.02283859252931	252.5178070068361	1149.903686523438	-381.7697753906251	113.9892349243165	1549.255981445313	45.10968399047853	502.3580627441409	1688.296386718751	31.3163185119629	164.1996612548829	1398.709350585938	33.72837448120119	359.467010498047	1495.023193359375	-186.1409149169922	171.1660919189454	1390.031494140625	20.45271301269532	68.10792541503909	1593.798583984376	34.93749618530275	196.2302551269532	1333.679565429688	35.74155807495119	261.3193359375001	1365.784057617188	-37.54824447631837	198.5524291992189	1330.786987304688	31.31630134582521	164.1997070312501	1398.709350585938	171.9126739501954	490.9660949707034	2025.418945312501	216.8039398193361	345.715545654297	1622.026733398438	-256.5567626953126	490.3312683105471	1977.965576171876	187.3075103759766	896.8482055664067	1880.985107421876	150.3182830810547	104.1116790771485	2253.565917968751	242.5280761718751	-112.8602600097657	1894.388061523438	-268.7995605468751	74.57424163818362	2163.811035156251	170.9522094726563	473.7586059570315	2035.567016601563	183.4297332763672	61.39390945434573	2107.494384765626	180.4878234863282	274.8093872070314	2065.500244140626	-32.44874572753908	53.39800262451175	2081.982421875001	156.8563995361329	102.7246704101563	2319.399902343751	192.2875518798829	47.617000579834	2036.859008789063	191.3069305419922	118.7555084228516	2022.860961914063	120.3280410766602	44.95170211791994	2028.354980468751	183.4297637939454	61.39391708374026	2107.494140625001	29.10661506652833	993.907104492188	1799.899169921876	240.4820556640626	987.2960815429692	1831.527221679688	151.6685180664063	1010.386169433594	2013.709472656251	-60.82289123535159	721.962585449219	1762.055175781251	-11.67460536956787	527.2662353515627	1687.144897460938	-26.8799343109131	301.1987304687501	1615.185424804688	-7.57866191864014	108.8499069213868	1544.630249023438	34.65447998046876	38.31976699829103	1584.718627929688	41.14538574218751	144.2842712402344	1385.38720703125	292.5921020507814	755.7714843750002	1943.499389648438	228.5662078857423	491.049987792969	2031.693359375001	235.2285919189454	357.4993896484376	2122.298095703126	195.6797485351564	107.3085250854493	2263.280029296876	145.5426940917969	81.88848876953128	2339.168701171876	173.2904357910157	45.82575607299806	2118.066406250001	40.51071166992189	1010.445739746094	1993.335205078126	-3.755748987197878	1.190976023674012	28.94471549987794	1.599393129348756	-9.966847419738773	3.374680042266847	0	0	6.163878917694095	-0.3847888410091402	3.146949768066408	6.173225879669193	-2.485394954681397	1.436926364898682	-13.88208484649659	-0.39260870218277	-6.923945426940922	10.94786262512207	-0.8018016219139104	5.589538574218752	19.77279472351075	0	0	19.67488861083985	2.602037906646729	8.295358657836918	5.488920211791994	-2.602037906646729	-8.295358657836918	5.488920211791994	-0.6355273127555849	2.859782695770265	-116.2226791381837	-0.7807295918464665	-7.016843318939213	-78.96341705322268	0	-0.03084517270326616	0	0	-2.255562543869019	0	0	-0.004150257445871832	0	0	-0.1276109367609025	0	0	0.04571986943483354	0	0	0.004352643620222809	0	nan	nan	nan	nan	nan	nan	-0.01335102878510953	-0.5092436075210574	-0.1670050024986268	-0.02154331840574742	0.01338387746363879	-0.1369386166334153	-0.1168995201587678	0.7676587104797368	0.01695010997354985	0.05784789845347407	0.8200983405113225	-0.9022796154022221	-0.1477543860673905	1.914347052574159	0.3837305307388308	0.1909413337707521	1.867521882057191	0.1187466233968735	nan	nan	nan	-2.842170879512931e-16	0.755707442760468	15.90362358093262	2.36847585645308e-15	-2.577738523483277	2.538355827331544	42.1808204650879	-2.376506090164185	-47.26099395751955	18.18499755859376	0.7390347719192507	-580.7056274414065	112.3152084350587	-8.85371017456055	-147.0577697753907	-42.19342422485353	-10.4239501953125	691.3502197265627	
47	0.46	123.1390075683594	894.8836059570317	1852.087524414063	142.8065948486329	881.5451660156255	1725.370117187501	-4.146263122558596	898.6666870117192	1831.933593750001	128.9423370361329	1023.062377929688	1839.495971679688	46.504451751709	517.669616699219	1676.357055664063	115.1718139648438	679.0670166015627	1301.448486328125	-361.4617919921876	556.9182128906252	1618.531372070313	59.50663757324222	896.7885742187505	1841.948486328126	39.59541320800783	108.2759246826172	1511.667602539063	34.23183059692384	265.4372558593751	1121.212768554688	-381.2504272460939	112.3870239257813	1519.103393554688	46.1851272583008	498.745788574219	1668.744506835938	32.06219482421876	169.2279510498047	1368.370849609375	34.30459594726564	361.0492553710939	1471.380615234375	-185.4591217041016	175.7133178710938	1361.029174804688	22.5263900756836	66.39808654785159	1560.064697265626	35.24077224731447	203.504608154297	1304.472778320313	35.98830795288087	267.4450988769532	1338.809448242188	-37.26632308959962	205.6664428710939	1302.025634765625	32.06220626831056	169.2279052734376	1368.370849609375	172.4712524414063	488.9153137207034	2013.037963867188	221.8763427734376	337.4798889160157	1611.986694335938	-255.9798583984376	484.9392700195315	1961.758911132813	186.7713470458985	892.978637695313	1862.226806640626	150.8607788085938	107.5555572509766	2250.933349609376	246.8555755615236	-118.1882324218751	1897.774047851563	-267.7744140625001	73.76678466796878	2158.739257812501	171.5107574462891	471.966003417969	2023.610839843751	183.5859527587891	59.91003036499026	2106.306396484376	180.9373168945313	271.8051147460939	2057.196289062501	-32.36010742187501	51.4662780761719	2081.520751953126	157.5357971191407	108.3612365722657	2316.763427734376	192.2693176269532	43.75966262817384	2036.153808593751	191.3864898681641	114.3913574218751	2019.783813476563	120.2872695922852	40.94512176513673	2027.891845703126	183.5858917236329	59.91001892089847	2106.306152343751	29.15304374694826	989.6416625976567	1779.567138671876	240.2441406250001	983.367797851563	1812.990478515626	149.6726684570313	1006.856811523438	1994.304321289063	-61.29658126831058	716.7374267578127	1742.310668945313	-10.66279411315918	523.1694335937502	1668.254028320313	-25.72753524780275	299.3046875000001	1589.455444335938	-5.895315647125246	108.720314025879	1512.47119140625	36.91437149047853	37.36528778076173	1549.969848632813	41.89885711669923	149.9737701416016	1353.739868164063	292.646209716797	753.2568969726565	1928.027465820313	229.0649414062501	489.4404907226565	2019.811035156251	235.5825653076173	357.9878845214845	2113.882812500001	196.1321716308595	111.2094955444337	2260.903320312501	145.8539276123047	87.70502471923831	2337.277832031251	173.4046478271485	44.82524871826173	2117.630859375001	38.64693069458009	1006.633422851563	1972.969604492188	-3.82305955886841	0.6175857782363894	28.96397781372072	1.168817877769471	-10.22946739196778	1.507900595664979	0	0	6.329254150390629	-0.3824104070663454	3.137020349502565	6.338780879974369	-2.830994129180909	1.259385824203492	-14.59493637084962	-0.4200921058654787	-6.847262382507328	11.50341606140137	-0.9385972023010258	6.220140933990482	19.29378128051759	0	0	19.17569541931153	2.579903602600099	8.783605575561527	5.610406875610353	-2.579903602600099	-8.783605575561527	5.610406875610353	-0.5906534194946291	2.510000467300416	-118.2103271484376	-0.7027322649955752	-6.877979755401615	-77.03535461425784	0	-0.07883737236261371	0	0	-1.60794234275818	0	0	-0.005463223904371263	0	0	-0.188893884420395	0	0	0.05291281640529635	0	0	0.007511718664318327	0	nan	nan	nan	nan	nan	nan	-0.01852887123823167	-0.5256983637809756	-0.1371585875749589	-0.02287171781063081	0.02199069038033486	-0.1388121843338013	-0.1175044849514962	0.8156188130378728	0.07998027652502063	0.06267285346984866	0.7824694514274602	-0.9104582071304326	-0.1495407074689866	1.994637489318849	0.523188650608063	0.2157371342182161	1.885918855667115	0.1525451987981797	nan	nan	nan	9.473903372872764e-17	-1.492488980293274	23.28628730773926	5.494864088615101e-15	-2.173581361770631	4.598309040069582	42.3766441345215	-1.959003329277039	-37.60509109497072	14.58928871154786	-1.497170090675354	-613.4043579101565	118.5678405761719	-9.111686706542972	-224.1007843017579	-49.52035903930667	-11.36963367462159	714.0267333984377	
48	0.47	122.6425170898438	891.1362304687505	1832.467895507813	143.314437866211	877.6148071289067	1705.929931640626	-4.483970642089846	894.7777709960942	1811.310668945313	128.4355010986329	1019.299865722657	1819.719116210938	47.39822006225587	514.506042480469	1656.507080078126	116.461410522461	675.7717285156252	1282.43994140625	-359.7825317382814	552.7260742187502	1597.807373046876	59.09003448486331	892.9701538085942	1821.827026367188	41.296688079834	107.7320022583008	1483.46826171875	35.5259475708008	272.8596191406251	1095.4951171875	-380.3149414062501	110.8279037475587	1491.057006835938	47.11667633056642	495.7358398437502	1648.522338867188	32.7636184692383	171.7987670898438	1341.593627929688	34.91318893432619	361.3110656738282	1448.794067382813	-184.8159179687501	177.6687622070313	1335.579345703125	24.63910484313966	64.73757934570315	1531.022583007813	35.47175979614259	207.4858551025392	1278.450439453125	36.18826293945314	270.6566467285157	1314.183959960938	-37.054744720459	209.4425048828126	1276.445678710938	32.76359176635744	171.7987670898438	1341.593505859375	173.3197479248047	486.7199707031252	1999.525268554688	227.2187347412111	329.9593505859376	1600.494750976563	-255.2050323486329	479.0987243652346	1944.636352539063	186.1949768066407	889.302124023438	1843.108520507813	151.7562866210938	111.5429992675782	2247.684082031251	251.4705505371095	-123.3775787353516	1901.185424804688	-266.3636474609376	73.18692016601565	2153.363769531251	172.3620758056641	470.0579833984377	2010.546508789063	183.8077087402344	58.10842514038089	2104.941162109376	181.7705230712891	267.911346435547	2047.522216796876	-32.25207519531251	49.51826858520511	2081.219238281251	158.6607818603516	114.9177322387696	2313.408691406251	192.1900024414064	39.1720314025879	2035.451660156251	191.5108642578126	109.1063079833985	2016.312133789063	120.1700592041016	36.30859756469728	2027.544433593751	183.8077392578126	58.10835266113284	2104.940917968751	29.13854598999025	985.698852539063	1759.061157226563	239.9846191406251	979.6591796875005	1794.151611328126	147.7074737548829	1003.398132324219	1974.664672851563	-61.82324600219729	712.4304809570315	1721.669799804688	-9.76217079162598	519.8713989257815	1648.266723632813	-24.48156929016115	297.3167419433595	1565.136962890626	-4.194720745086672	108.0660476684571	1484.287109375	39.11558532714845	36.93675613403322	1520.226684570313	42.58995819091798	153.0549316406251	1325.973388671875	292.7078552246095	750.8165283203127	1911.900268554688	229.8490295410157	487.7253112792971	2006.765991210938	236.2614746093751	358.6028747558595	2104.499755859376	196.9359436035157	115.6875305175782	2257.875488281251	146.4712982177735	94.48574829101565	2334.665527343751	173.5503082275391	43.70647430419923	2117.242187500001	36.8143997192383	1002.975158691407	1952.431396484376	-3.88152599334717	0.3000028133392335	29.03652763366701	0.9113373160362248	-10.39583206176758	0.4053323864936831	0	0	6.454222202301029	-0.3085979521274568	2.828773975372315	6.462138652801517	-3.229731798171999	1.050328254699707	-15.23461532592774	-0.4479648470878603	-6.770385742187504	12.27592277526856	-1.097363948822022	6.950078964233402	18.56622314453126	0	0	18.42486190795899	2.575310468673707	9.236012458801273	5.680694580078127	-2.575310468673707	-9.236012458801273	5.680694580078127	-0.5660353899002077	2.138329505920411	-119.4742050170899	-0.5402449965476992	-6.638406276702884	-74.75654602050784	nan	nan	nan	nan	nan	nan	nan	nan	nan	0	-0.2320981025695802	0	0	0.05061100423336032	0	0	0.01144916750490666	0	nan	nan	nan	nan	nan	nan	nan	nan	nan	-0.02385687269270421	0.03164470195770265	-0.1438469141721726	-0.1121006682515145	0.8779325485229497	0.1471248418092728	nan	nan	nan	-0.1416207700967789	2.093159914016725	0.6696665287017824	nan	nan	nan	nan	nan	nan	nan	nan	nan	-1.752672104129127e-15	-1.442762732505799	6.198997020721439	40.3760452270508	-1.242240309715271	-25.5095844268799	nan	nan	nan	118.4707107543946	-8.869371414184574	-310.4550170898439	nan	nan	nan	
49	0.48	122.0735244750977	887.6912231445317	1812.529541015626	143.6373596191407	874.0944824218755	1686.148559570313	-4.902366638183596	891.2807617187505	1790.478027343751	127.9177627563477	1015.848449707032	1799.738891601563	48.12328720092776	512.1020507812502	1635.743041992188	119.1848754882813	673.718933105469	1263.151245117188	-357.8754272460939	550.1253662109377	1574.803100585938	58.5967712402344	889.499145507813	1801.441772460938	42.98167800903322	106.4410247802735	1459.480224609375	39.02221298217775	274.6207885742189	1072.537231445313	-378.9012756347657	109.3610458374024	1465.06640625	47.88618469238283	493.3931884765627	1627.613769531251	33.49057769775392	171.7153472900391	1318.218139648438	35.59805297851564	360.2908630371095	1427.058959960938	-184.1355285644532	176.9268798828126	1313.402587890625	26.71504020690919	62.9789733886719	1506.743896484375	35.74911880493165	207.9608154296876	1255.376098632813	36.45157623291017	270.8193359375001	1291.656372070313	-36.79291915893556	209.697967529297	1253.770874023438	33.49058532714845	171.7153625488282	1318.218017578125	174.4909362792969	484.345642089844	1984.700927734376	232.8344268798829	323.2971496582032	1587.256591796876	-254.2005004882814	472.786315917969	1926.454467773438	185.5502929687501	885.8833007812505	1823.617309570313	153.0169677734376	116.1316299438477	2243.606445312501	256.344940185547	-128.3444213867188	1904.484008789063	-264.5371093750001	72.92652893066409	2147.527832031251	173.5378875732422	468.0037231445315	1996.191650390626	184.1073303222657	55.97510910034183	2103.347167968751	183.0725250244141	262.9162902832032	2036.320312500001	-32.10418701171876	47.64097595214845	2080.954101562501	160.2360534667969	122.4898681640626	2309.075927734376	192.0644683837892	33.8035125732422	2034.770996093751	191.7195434570313	102.7839050292969	2012.428710937501	119.9939498901368	31.02546691894533	2027.306640625001	184.1073608398438	55.97510528564456	2103.347167968751	29.03230094909669	982.179077148438	1738.402465820313	239.6821746826173	976.2241821289067	1774.985473632813	145.8273162841797	1000.077087402344	1954.799804687501	-62.37910461425784	709.196228027344	1700.159912109376	-8.989761352539066	517.4509277343752	1627.170288085938	-23.1439437866211	295.2145996093751	1542.204833984376	-2.513248443603517	106.7559127807618	1460.082641601563	41.17940902709962	36.9294776916504	1495.606567382813	43.29499816894533	153.2458496093751	1302.029541015625	292.752166748047	748.4582519531252	1895.040039062501	230.9518127441407	485.8680419921877	1992.372192382813	237.2932434082032	359.3364257812501	2093.956298828126	198.1041717529298	120.7968826293946	2253.980712890626	147.4033966064454	102.359115600586	2331.054199218751	173.7323150634766	42.52695083618165	2116.871826171876	35.06314086914064	999.5754394531255	1931.761596679688	-3.914744377136232	0.2449827194213868	29.16796493530275	0.8154917955398564	-10.46095085144043	0.07949668169021609	0	0	6.507103443145756	-0.1682069301605225	2.242040872573853	6.512116432189945	-3.688123703002931	0.8005529642105107	-15.77404880523682	-0.475437790155411	-6.691808223724369	13.29642295837403	-1.277339339256287	7.774716377258304	17.54892158508301	0	0	17.38245391845704	2.598098516464234	9.63839149475098	5.69949245452881	-2.598098516464234	-9.63839149475098	5.69949245452881	-0.5548450350761416	1.783201098442079	-119.9751434326172	-0.2741957306861879	-6.300288200378422	-72.08329772949222	nan	nan	nan	nan	nan	nan	nan	nan	nan	0	-0.2365736216306688	0	0	0.03747105225920679	0	0	0.01479778625071049	0	nan	nan	nan	nan	nan	nan	nan	nan	nan	-0.02441192977130414	0.03924186900258066	-0.1538366377353669	-0.100261151790619	0.955185174942017	0.2089844644069673	nan	nan	nan	-0.1240826398134232	2.210551023483277	0.8082056641578679	nan	nan	nan	nan	nan	nan	nan	nan	nan	5.992243529308721e-15	-0.4113542735576632	6.878477573394779	36.08666229248048	-0.2581872642040254	-12.89082527160645	nan	nan	nan	110.4353408813477	-8.011424064636234	-398.7052307128909	nan	nan	nan	
